<mxfile host="app.diagrams.net" modified="2023-10-28T22:54:44.794Z" agent="Mozilla/5.0 (Windows NT 10.0; Win64; x64) AppleWebKit/537.36 (KHTML, like Gecko) Chrome/118.0.0.0 Safari/537.36" version="22.0.8" etag="dYapnr3g4M0foqDzUkBw" type="github">
  <diagram name="Page-1" id="37A_k7-nBJteN1HwEnxY">
    <mxGraphModel>
      <root>
        <mxCell id="0" />
        <mxCell id="1" parent="0" />
      </root>
    </mxGraphModel>
  </diagram>
</mxfile>
